<svg height="511pt" viewBox="0 -8 511.99997 511" width="511pt" xmlns="http://www.w3.org/2000/svg"><path d="m510.652344 367.664062-15.441406-26.75c-1.765626-3.058593-5.417969-4.5-8.792969-3.472656l-22.527344 6.839844c-2.539063-1.722656-5.195313-3.261719-7.949219-4.601562l-5.332031-22.910157c-.804687-3.445312-3.871094-5.878906-7.40625-5.878906h-30.890625c-3.535156 0-6.601562 2.433594-7.402344 5.878906l-5.335937 22.910157c-2.753907 1.339843-5.410157 2.878906-7.949219 4.601562l-22.527344-6.839844c-3.382812-1.027344-7.027344.414063-8.792968 3.472656l-15.441407 26.75c-1.769531 3.0625-1.191406 6.9375 1.386719 9.355469l17.167969 16.066407c-.109375 1.539062-.167969 3.078124-.167969 4.605468 0 1.53125.058594 3.070313.167969 4.605469l-17.167969 16.070313c-2.578125 2.414062-3.15625 6.289062-1.386719 9.351562l15.441407 26.75c1.765624 3.0625 5.414062 4.5 8.792968 3.472656l22.527344-6.839844c2.539062 1.722657 5.195312 3.261719 7.949219 4.605469l5.335937 22.910157c.800782 3.441406 3.867188 5.878906 7.402344 5.878906h30.890625c3.535156 0 6.601563-2.4375 7.40625-5.878906l5.332031-22.910157c2.753906-1.34375 5.410156-2.882812 7.949219-4.605469l22.527344 6.839844c3.375 1.027344 7.027343-.414062 8.792969-3.472656l15.441406-26.75c1.769531-3.0625 1.195312-6.9375-1.386719-9.351562l-17.167969-16.070313c.109375-1.539063.167969-3.078125.167969-4.605469s-.058594-3.066406-.167969-4.605468l17.167969-16.070313c2.582031-2.414063 3.15625-6.289063 1.386719-9.351563zm-31.691406 16.894532c-1.796876 1.679687-2.667969 4.121094-2.34375 6.554687.292968 2.1875.441406 4.398438.441406 6.578125 0 2.179688-.148438 4.394532-.441406 6.578125-.324219 2.433594.546874 4.878907 2.34375 6.558594l15.503906 14.515625-9.40625 16.292969-20.355469-6.179688c-2.355469-.714843-4.914063-.246093-6.863281 1.257813-3.480469 2.691406-7.296875 4.90625-11.347656 6.578125-2.269532.933593-3.949219 2.910156-4.507813 5.300781l-4.816406 20.695312h-18.816407l-4.820312-20.695312c-.554688-2.390625-2.234375-4.367188-4.503906-5.304688-4.050782-1.667968-7.871094-3.882812-11.351563-6.574218-1.949219-1.503906-4.503906-1.972656-6.859375-1.257813l-20.359375 6.179688-9.40625-16.292969 15.507813-14.519531c1.796875-1.679688 2.667968-4.121094 2.339844-6.558594-.292969-2.175781-.4375-4.386719-.4375-6.574219 0-2.179687.144531-4.390625.4375-6.578125.324218-2.433593-.542969-4.875-2.339844-6.554687l-15.507813-14.515625 9.40625-16.296875 20.359375 6.179687c2.355469.71875 4.910156.246094 6.859375-1.257812 3.480469-2.691407 7.300781-4.902344 11.351563-6.574219 2.269531-.9375 3.949218-2.914062 4.503906-5.304688l4.820312-20.695312h18.816407l4.816406 20.695312c.558594 2.390626 2.238281 4.367188 4.507813 5.304688 4.050781 1.667969 7.867187 3.882812 11.347656 6.574219 1.949218 1.503906 4.503906 1.972656 6.863281 1.257812l20.355469-6.179687 9.40625 16.292968zm0 0"/><path d="m189.339844 209.722656c-4.199219 0-7.601563 3.40625-7.601563 7.605469v15.25c0 4.195313 3.402344 7.601563 7.601563 7.601563 4.199218 0 7.601562-3.40625 7.601562-7.601563v-15.25c0-4.199219-3.402344-7.605469-7.601562-7.605469zm0 0"/><path d="m118.867188 232.578125v-15.25c0-4.199219-3.40625-7.605469-7.605469-7.605469s-7.601563 3.40625-7.601563 7.605469v15.25c0 4.195313 3.402344 7.601563 7.601563 7.601563s7.605469-3.40625 7.605469-7.601563zm0 0"/><path d="m171.847656 274.386719c-11.878906 11.878906-31.210937 11.878906-43.09375 0-2.96875-2.96875-7.78125-2.96875-10.75 0s-2.96875 7.78125 0 10.75c8.902344 8.90625 20.601563 13.359375 32.296875 13.359375 11.699219 0 23.394531-4.453125 32.300781-13.359375 2.96875-2.96875 2.96875-7.78125 0-10.75s-7.785156-2.96875-10.753906 0zm0 0"/><path d="m475.246094 167.035156c.367187-3.730468.554687-7.484375.554687-11.210937 0-3.722657-.1875-7.480469-.554687-11.210938l34.347656-32.152343c2.578125-2.414063 3.15625-6.289063 1.386719-9.351563l-28.808594-49.894531c-1.769531-3.0625-5.414063-4.5-8.796875-3.472656l-9.605469 2.917968c-4.019531 1.21875-6.285156 5.464844-5.066406 9.480469 1.21875 4.019531 5.464844 6.289063 9.484375 5.066406l3.832031-1.164062 22.773438 39.441406-32.738281 30.648437c-1.792969 1.679688-2.664063 4.121094-2.335938 6.558594.578125 4.34375.871094 8.765625.871094 13.132813 0 4.371093-.292969 8.789062-.871094 13.136719-.328125 2.433593.542969 4.878906 2.335938 6.558593l32.738281 30.644531-22.773438 39.441407-42.964843-13.046875c-2.355469-.714844-4.914063-.246094-6.863282 1.261718-6.945312 5.371094-14.578125 9.792969-22.6875 13.136719-2.269531.9375-3.949218 2.914063-4.503906 5.304688l-10.167969 43.691406h-45.546875l-10.167968-43.691406c-.558594-2.390625-2.238282-4.367188-4.507813-5.304688-8.109375-3.347656-15.742187-7.765625-22.6875-13.136719-.644531-.5-1.359375-.875-2.109375-1.140624.515625-2.359376.789062-4.796876.789062-7.292969 0-18.085938-14.214843-33.179688-32.960937-36.449219v-37.960938c12.230469-9.488281 21.4375-21.273437 27.488281-35.28125 5.53125-12.804687 7.890625-26.207031 8.359375-39.035156 6.519531-4.839844 13.613281-8.871094 21.121094-11.964844 2.269531-.9375 3.949219-2.914062 4.503906-5.308593l10.167969-43.679688h45.546875l10.171875 43.679688c.554688 2.394531 2.234375 4.371093 4.503906 5.308593 8.109375 3.34375 15.742188 7.761719 22.6875 13.136719 1.347656 1.042969 2.988282 1.585938 4.652344 1.585938.738281 0 1.484375-.105469 2.207031-.328125l13.734375-4.167969c4.019532-1.21875 6.285156-5.46875 5.066406-9.484375-1.21875-4.019531-5.46875-6.289062-9.484374-5.066406l-10.058594 3.054687c-6.070313-4.367187-12.5625-8.125-19.367188-11.214843l-10.667968-45.832032c-.800782-3.441406-3.871094-5.878906-7.40625-5.878906h-57.621094c-3.535156 0-6.605469 2.4375-7.40625 5.878906l-10.664063 45.832032c-4.195312 1.902343-8.265625 4.066406-12.195312 6.460937-2.433594-27.433594-11.574219-48.902344-12.203125-50.351563-1.03125-2.371093-3.191406-4.054687-5.742188-4.476562-2.550781-.417969-5.136718.488281-6.871094 2.40625-24.316406 26.890625-65.695312 22.648438-109.507812 18.160156-10.730469-1.097656-21.828125-2.234375-32.707031-2.898437-32.101563-1.945313-61.375 15.515625-74.828125 43.992187-11.789063-1.8125-23.742188 1.03125-33.632813 8.171875-11.769531 8.492188-18.679687 21.679688-18.957031 36.175781-.601562 31.480469 12.8125 64.121094 20.402344 79.988282-16.714844 4.585937-28.933594 18.78125-28.933594 35.546875 0 18.683593 15.175781 34.179687 34.839844 36.730469 4.207031 23.328124 15.375 44.796874 32.488281 61.910156 11.6875 11.6875 25.40625 20.605468 40.363281 26.421875v21.226562h-43.242187c-30.214844 0-54.796875 24.578125-54.796875 54.792969v60.65625c0 4.195312 3.40625 7.601562 7.605468 7.601562h265.980469c4.199219 0 7.605469-3.40625 7.605469-7.601562v-11.152344c0-4.199218-3.40625-7.601562-7.605469-7.601562s-7.601562 3.402344-7.601562 7.601562v3.546875h-37.761719l-15.925781-15.925781 17.480469-4.367188c3.492187-.875 5.894531-4.078124 5.753906-7.675781l-2.53125-64.109375c18.695312 3.152344 32.984375 19.449219 32.984375 39.027344v19.089844c0 4.199218 3.402343 7.605468 7.605469 7.605468 4.199218 0 7.601562-3.40625 7.601562-7.605468v-19.089844c0-30.214844-24.582031-54.792969-54.792969-54.792969h-43.234375v-21.253906c37.417969-14.59375 65.570313-47.867187 72.929688-88.304687 9.824218-1.269532 18.519531-5.769532 24.773437-12.285157l5.289063-1.605469c6.070312 4.363282 12.558594 8.121094 19.367187 11.210938l10.667969 45.84375c.800781 3.441406 3.871094 5.878906 7.40625 5.878906h57.621094c3.53125 0 6.601562-2.433594 7.402344-5.878906l10.667968-45.84375c6.808594-3.089844 13.296875-6.84375 19.371094-11.214844l45.0625 13.6875c3.382812 1.027344 7.027344-.414062 8.796875-3.472656l28.808594-49.898438c1.769531-3.058593 1.191406-6.933593-1.386719-9.351562zm-451.507813-56.894531c.183594-9.671875 4.792969-18.46875 12.648438-24.136719 5.3125-3.832031 11.515625-5.8125 17.835937-5.8125 3.058594 0 6.144532.460938 9.167969 1.402344 3.855469 1.199219 7.972656-.824219 9.382813-4.609375 9.597656-25.785156 34.621093-41.980469 62.253906-40.292969 10.566406.640625 21.503906 1.765625 32.082031 2.847656 41.308594 4.230469 83.886719 8.597657 113.457031-14.769531 5.554688 17.492188 13.976563 53.941407.605469 84.894531-8.8125 20.410157-25.941406 35.316407-50.90625 44.3125-70.066406 25.242188-137.339844-12.480468-138.003906-12.859374-2.109375-1.210938-4.671875-1.332032-6.890625-.339844-2.222656.992187-3.835938 2.992187-4.339844 5.371094-.082031.402343-8.402344 38.136718-36.03125 41.835937-5.941406-11.71875-21.867188-46.210937-21.261719-77.84375zm-8.53125 115.246094c0-9.792969 7.472657-18.101563 17.753907-20.898438v36.558594c0 1.761719.042968 3.515625.117187 5.265625-10.339844-2.761719-17.871094-11.097656-17.871094-20.925781zm172.003907 161.492187h11.125l-10.960938 38.46875-24.660156-24.664062zm-86.464844 70.566406c-.730469-2.640624-2.828125-4.679687-5.484375-5.34375l-24.511719-6.128906 2.332031-59.09375h13.277344l26.394531 92.640625h-28.628906l14.667969-14.667969c1.9375-1.9375 2.683593-4.765624 1.953125-7.40625zm49.507812-47.714843 13.457032 13.457031-14.089844 17.410156-13.285156-16.957031zm32.351563 32.351562-8.144531 28.597657-14.570313-18.597657 14.632813-18.082031zm-57.097657-7.609375 14.921876 19.050782-14.253907 17.609374-8.277343-29.050781zm25.191407 30.535156 11.367187 14.511719h-23.117187zm-37.570313-39.660156-10.957031-38.46875h11.121094l24.5 13.804688zm-88.269531 1.121094c0-19.578125 14.289063-35.871094 32.984375-39.027344l-2.53125 64.109375c-.140625 3.597657 2.261719 6.800781 5.753906 7.675781l17.480469 4.367188-15.925781 15.925781h-37.761719zm180.375 25.632812c-2.65625.664063-4.75 2.703126-5.480469 5.34375-.730468 2.640626.011719 5.46875 1.949219 7.40625l14.667969 14.667969h-28.617188l26.390625-92.640625h13.269531l2.332032 59.09375zm-27.625-77.265624-27.355469 15.414062-27.359375-15.414062v-19.648438c8.875 2.113281 18.054688 3.210938 27.40625 3.210938 9.398438 0 18.542969-1.117188 27.308594-3.214844zm-27.308594-31.644532c-27.28125 0-52.929687-10.625-72.21875-29.914062-19.292969-19.292969-29.917969-44.945313-29.917969-72.230469v-38.160156c14.992188-2.320313 27.707032-11.582031 37.082032-27.171875 3.699218-6.15625 6.265625-12.296875 7.949218-17.109375 7.960938 3.703125 21.101563 9.082031 37.714844 13.242187 46.144532 11.546875 82.304688 4.433594 104.507813-3.566406 6.074219-2.1875 11.734375-4.710938 17.019531-7.523438v80.289063c0 56.324219-45.816406 102.144531-102.136719 102.144531zm117.34375-102.144531v-36.558594c10.277344 2.796875 17.753907 11.105469 17.753907 20.898438 0 9.828125-7.535157 18.164062-17.878907 20.925781.078125-1.746094.125-3.5.125-5.265625zm0 0"/><path d="m362.058594 103.273438c-28.976563 0-52.554688 23.574218-52.554688 52.550781 0 28.980469 23.578125 52.554687 52.554688 52.554687 28.980468 0 52.554687-23.574218 52.554687-52.554687 0-28.976563-23.574219-52.550781-52.554687-52.550781zm0 89.898437c-20.59375 0-37.347656-16.753906-37.347656-37.347656s16.753906-37.347657 37.347656-37.347657 37.347656 16.753907 37.347656 37.347657-16.753906 37.347656-37.347656 37.347656zm0 0"/><path d="m427.757812 369.5625c-15.511718 0-28.128906 12.617188-28.128906 28.128906 0 15.511719 12.617188 28.128906 28.128906 28.128906 15.511719 0 28.128907-12.617187 28.128907-28.128906 0-15.511718-12.617188-28.128906-28.128907-28.128906zm0 41.050781c-7.125 0-12.921874-5.796875-12.921874-12.921875 0-7.128906 5.796874-12.925781 12.921874-12.925781s12.925782 5.796875 12.925782 12.925781c0 7.125-5.796875 12.921875-12.925782 12.921875zm0 0"/></svg>