<?xml version="1.0" encoding="iso-8859-1"?>
<!-- Generator: Adobe Illustrator 19.0.0, SVG Export Plug-In . SVG Version: 6.00 Build 0)  -->
<svg version="1.1" id="Capa_1" xmlns="http://www.w3.org/2000/svg" xmlns:xlink="http://www.w3.org/1999/xlink" x="0px" y="0px"
	 viewBox="0 0 511.999 511.999" style="enable-background:new 0 0 511.999 511.999;" xml:space="preserve">
<g>
	<g>
		<path d="M332.78,154.47c-3.724-1.836-8.229-0.305-10.064,3.418c-1.836,3.723-0.306,8.229,3.418,10.065
			c13.728,6.768,22.266,20.467,22.281,35.754c0.064,63.45-71.581,101.861-87.19,109.472c-15.64-7.562-87.339-45.715-87.406-109.294
			c-0.012-10.654,4.128-20.676,11.655-28.218c18.739-18.778,49.985-14.257,62.918,8.502c0.295,0.519,0.646,0.994,1.045,1.419
			c1.36,1.539,5.555,5.643,11.643,5.643c0.006,0,0.013,0,0.019,0c6.291-0.003,11.315-4.651,12.694-7.088
			c5.013-8.864,13.122-15.419,22.832-18.454c3.962-1.239,6.169-5.454,4.93-9.415c-1.239-3.961-5.453-6.168-9.415-4.931
			c-13.055,4.081-24.006,12.779-30.938,24.547c-0.036,0.029-0.075,0.061-0.115,0.093c-0.043-0.034-0.086-0.07-0.129-0.106
			c-9.871-16.656-27.876-26.954-47.246-26.954c-30.373,0-54.958,24.592-54.925,54.978c0.083,79.513,96.519,125.088,102.45,125.088
			c4.927,0,32.428-15.282,52.203-31.855C374.416,246.03,378.332,176.926,332.78,154.47z"/>
	</g>
</g>
<g>
	<g>
		<path d="M490.024,256.909c-4.151,0-7.516,3.365-7.516,7.516v98.378c-0.015,0.969-0.625,23.765-23.98,35.551
			c-35.811,13.564-106.526,31.572-180.277,1.169c-67.834-27.964-144.62-34.67-205.351-24.388V47.344
			c58.25-10.504,133.434-4.277,199.622,23.01c62.268,25.669,131.997,22.267,194.553-2.252c4.155-1.376,9.485-2.137,12.179-0.203
			c2.83,2.031,3.253,7.642,3.253,10.804v150.649c0,4.151,3.365,7.516,7.516,7.516s7.516-3.365,7.516-7.516V78.703
			c0-26.624-20.383-30.696-35.776-24.663c-58.822,23.096-124.669,26.674-183.511,2.416c-66.86-27.563-143.582-34.845-205.35-24.386
			v-10.32C72.901,9.554,61.124,0,46.09,0h-4.821C26.236,0,14.459,9.554,14.459,21.749V490.25c0,12.195,11.776,21.749,26.809,21.749
			h4.821c15.034,0,26.812-9.554,26.812-21.749v-99.842c58.151-10.484,133.323-4.321,199.622,23.011
			c61.738,25.452,130.354,22.185,191.7-1.15c0.227-0.086,0.45-0.183,0.667-0.292c32.172-15.958,32.644-47.738,32.649-49.107v-98.446
			C497.54,260.274,494.175,256.909,490.024,256.909z M57.869,490.25c0,3.171-5.037,6.718-11.78,6.718h-4.821
			c-6.741,0-11.778-3.547-11.778-6.718V21.749c0.001-3.171,5.038-6.718,11.779-6.718h4.821c6.743,0,11.78,3.547,11.78,6.718
			C57.869,28.436,57.869,475.636,57.869,490.25z"/>
	</g>
</g>
<g>
</g>
<g>
</g>
<g>
</g>
<g>
</g>
<g>
</g>
<g>
</g>
<g>
</g>
<g>
</g>
<g>
</g>
<g>
</g>
<g>
</g>
<g>
</g>
<g>
</g>
<g>
</g>
<g>
</g>
</svg>
