<?xml version="1.0" encoding="iso-8859-1"?>
<!-- Generator: Adobe Illustrator 19.0.0, SVG Export Plug-In . SVG Version: 6.00 Build 0)  -->
<svg version="1.1" id="Layer_1" xmlns="http://www.w3.org/2000/svg" xmlns:xlink="http://www.w3.org/1999/xlink" x="0px" y="0px"
	 viewBox="0 0 512 512" style="enable-background:new 0 0 512 512;" xml:space="preserve">
<g>
	<g>
		<g>
			<path d="M412.295,279.749h21.558c7.43,0,13.474-6.05,13.474-13.487v-54.021c0-7.436-6.044-13.487-13.474-13.487h-21.558
				c-7.43,0-13.474,6.05-13.474,13.487v54.021C398.821,273.699,404.865,279.749,412.295,279.749z M414.989,214.925h16.168v48.656
				h-16.168V214.925z"/>
			<path d="M180.547,258.141h21.558c7.43,0,13.474-6.05,13.474-13.487v-75.628c0-7.436-6.044-13.487-13.474-13.487h-21.558
				c-7.43,0-13.474,6.05-13.474,13.487v75.628C167.074,252.09,173.117,258.141,180.547,258.141z M183.242,171.708h16.168v70.265
				h-16.168V171.708z"/>
			<path d="M503.916,479.663h-13.474v-18.927c0-6.513-4.636-11.961-10.779-13.215V171.708h2.695
				c10.401,0,18.863-8.473,18.863-18.888v-10.804c0-10.416-8.463-18.888-18.863-18.888h-99.705v-18.094
				c6.362-3.039,10.779-9.524,10.779-17.04V77.19c0-10.416-8.463-18.888-18.863-18.888h-13.743
				c-1.246-6.156-6.693-10.804-13.204-10.804h-29.785c-0.518-9.12-2.561-17.979-6.116-26.392c-1.264-2.993-4.198-4.938-7.447-4.938
				h-96.545c-3.249,0-6.182,1.945-7.447,4.938c-3.555,8.413-5.597,17.272-6.116,26.392h-29.785c-6.513,0-11.958,4.649-13.204,10.804
				h-13.743c-10.401,0-18.863,8.473-18.863,18.888v10.804c0,7.516,4.417,14.001,10.779,17.04v18.092H29.642
				c-10.401,0-18.863,8.473-18.863,18.888v10.804c0,10.416,8.463,18.888,18.863,18.888h2.695v275.815
				c-6.143,1.254-10.779,6.701-10.779,13.215v18.927H8.084c-4.465,0-8.084,3.62-8.084,8.084c0,4.465,3.62,8.084,8.084,8.084h495.832
				c4.466,0,8.084-3.62,8.084-8.084C512,483.283,508.382,479.663,503.916,479.663z M382.653,139.295h99.705
				c1.486,0,2.695,1.22,2.695,2.719v10.804c0,1.5-1.208,2.719-2.695,2.719h-10.779h-88.926V139.295z M382.653,171.708h80.842V447.25
				h-48.505v-18.926c0-7.436-6.044-13.487-13.474-13.487h-18.863V171.708z M361.095,74.471h13.474c1.486,0,2.695,1.22,2.695,2.719
				v10.804c0,1.5-1.208,2.72-2.695,2.72h-13.474V74.471z M317.122,63.666h27.804v37.852h-44.202
				C309.267,90.817,315.054,77.783,317.122,63.666z M213.325,32.337h85.35c2.083,6.355,3.136,12.99,3.136,19.787
				c0,28.614-19.165,53.565-45.811,59.997c-26.646-6.431-45.811-31.382-45.811-59.997C210.189,45.327,211.243,38.692,213.325,32.337
				z M167.074,98.81c0-0.003,0-0.006,0-0.011s0-0.006,0-0.011V63.666h27.804c2.068,14.117,7.855,27.15,16.398,37.852h-44.202V98.81z
				 M164.379,117.688h64.573c7.603,5.018,16.156,8.693,25.387,10.631c0.548,0.115,1.104,0.172,1.661,0.172
				c0.557,0,1.113-0.057,1.661-0.172c9.231-1.938,17.783-5.614,25.387-10.631h64.573c6.513,0,11.958-4.649,13.204-10.804h5.659
				v307.955h-37.726V304.077c0-10.416-8.463-18.888-18.863-18.888H202.105c-10.401,0-18.863,8.473-18.863,18.888v110.761h-37.726
				V106.883h5.659C152.421,113.039,157.866,117.688,164.379,117.688z M312.589,304.077v110.761h-48.505V301.358h45.81
				C311.381,301.358,312.589,302.577,312.589,304.077z M247.916,301.358v113.481h-48.505V304.077c0-1.5,1.209-2.72,2.695-2.72
				H247.916z M134.737,77.19c0-1.5,1.209-2.719,2.695-2.719h13.474v16.244h-13.474c-1.485,0-2.695-1.22-2.695-2.72V77.19z
				 M398.821,431.007v16.244H113.179v-16.244H398.821z M110.484,414.839c-7.43,0-13.474,6.05-13.474,13.487v18.926H48.505V171.709
				h80.842v243.13H110.484z M29.642,155.54v-0.001c-1.485,0-2.695-1.22-2.695-2.719v-10.804c0-1.5,1.209-2.719,2.695-2.719h99.705
				v16.244H40.421H29.642z M474.274,479.663H37.726v-16.244h436.547V479.663z"/>
			<path d="M412.295,387.791h21.558c7.43,0,13.474-6.05,13.474-13.487v-54.021c0-7.436-6.044-13.486-13.474-13.486h-21.558
				c-7.43,0-13.474,6.049-13.474,13.486v54.021C398.821,381.741,404.865,387.791,412.295,387.791z M414.989,322.965h16.168v48.656
				h-16.168V322.965z"/>
			<path d="M99.705,306.797H78.147c-7.43,0-13.474,6.049-13.474,13.486v54.021c0,7.436,6.044,13.487,13.474,13.487h21.558
				c7.43,0,13.474-6.05,13.474-13.487v-54.021C113.179,312.847,107.135,306.797,99.705,306.797z M97.011,371.623H80.842v-48.656
				h16.168V371.623z"/>
			<path d="M309.895,258.141h21.558c7.43,0,13.474-6.05,13.474-13.487v-75.628c0-7.436-6.044-13.487-13.474-13.487h-21.558
				c-7.43,0-13.474,6.05-13.474,13.487v75.628C296.421,252.09,302.465,258.141,309.895,258.141z M312.589,171.708h16.168v70.265
				h-16.168V171.708z"/>
			<path d="M99.705,198.756H78.147c-7.43,0-13.474,6.05-13.474,13.487v54.021c0,7.436,6.044,13.487,13.474,13.487h21.558
				c7.43,0,13.474-6.05,13.474-13.487v-54.021C113.179,204.805,107.135,198.756,99.705,198.756z M97.011,263.581H80.842v-48.656
				h16.168V263.581z"/>
			<path d="M245.221,258.141h21.558c7.43,0,13.474-6.05,13.474-13.487v-75.628c0-7.436-6.044-13.487-13.474-13.487h-21.558
				c-7.43,0-13.474,6.05-13.474,13.487v75.628C231.747,252.09,237.791,258.141,245.221,258.141z M247.916,171.708h16.168v70.265
				h-16.168V171.708z"/>
		</g>
	</g>
</g>
<g>
</g>
<g>
</g>
<g>
</g>
<g>
</g>
<g>
</g>
<g>
</g>
<g>
</g>
<g>
</g>
<g>
</g>
<g>
</g>
<g>
</g>
<g>
</g>
<g>
</g>
<g>
</g>
<g>
</g>
</svg>
